<svg width="1440" height="331" viewBox="0 0 1440 331" fill="none" xmlns="http://www.w3.org/2000/svg">
<path d="M0 235.263C0 235.263 941.197 232.826 946.069 237.7C948.11 239.741 954.195 251.103 963.123 259.024C972.051 266.944 988.704 275.025 997.231 275.474C1005.76 275.923 1046.57 194.443 1046.57 194.443C1046.57 194.443 1066.82 163.021 1085.55 131.08C1101.95 103.103 1117.01 74.5852 1118.43 68.3268C1121.48 54.9231 1134.88 20.8046 1130.01 3.13637C1127.19 -7.06676 1098.34 21.414 1078.85 43.3471C1059.36 65.2803 1044.74 74.3764 1044.74 77.4655C1044.74 80.8281 1053.87 91.4784 1061.18 104.273C1068.49 117.067 1077.02 137.782 1073.97 138.391C1072.49 138.688 1061.18 123.769 1054.48 110.365C1047.78 96.9617 1039.87 87.823 1036.21 85.9952C1032.56 84.1673 1024.64 88.4321 1024.64 92.0877C1024.64 95.7433 1029.51 107.319 1024.03 111.584C1018.55 115.849 1014.89 109.147 1013.68 106.101C1012.46 103.054 1011.85 97.571 1016.11 96.9617C1020.38 96.3525 1021.59 103.054 1021.59 106.101C1021.59 109.147 1016.11 114.63 1013.68 117.067C1011.24 119.504 1011.24 122.55 1005.76 122.55C1000.28 122.55 998.449 117.067 998.449 112.193C998.449 107.319 1005.15 103.228 1007.58 104.273C1010.02 105.317 1009.21 115.849 1003.93 123.769C998.652 131.689 992.358 136.563 985.05 134.736C977.741 132.908 978.35 122.55 983.222 118.286C988.095 114.021 992.967 114.63 994.795 117.067C996.622 119.504 994.186 125.597 992.358 129.252C990.531 132.908 978.35 148.901 974.695 153.013C971.041 157.126 958.251 140.828 958.86 135.954C959.469 131.08 970.432 125.597 973.477 126.815C975.043 127.442 974.505 149.967 974.695 162.152C974.886 174.337 977.741 193.833 975.914 199.926C974.086 206.019 952.769 226.124 952.769 232.826C952.769 235.578 959.774 246.419 969.823 255.368C976.065 260.927 985.349 266.011 991.14 269.99C998.729 275.204 1000.89 278.52 1004.54 279.129C1005.45 279.282 1012.85 272.549 1021.59 259.024C1031.42 243.829 1042.2 222.885 1053.26 203.582C1071.73 171.389 1075.8 168.245 1079.45 160.934C1081.57 156.704 1100.57 125.151 1114.17 98.7895C1124.09 79.5814 1129.4 64.6712 1131.83 56.1416C1133.04 51.9147 1135.5 41.2757 1136.71 29.9436C1137.94 18.4083 1137.91 6.19882 1139.14 4.35481C1141.58 0.699277 1152.54 7.40116 1153.15 12.8844C1153.76 18.3676 1145.42 64.0619 1134.88 91.4784C1132.89 96.6426 1128.6 109.324 1121.48 122.55C1112.95 140.828 1095.9 167.026 1090.42 172.509C1088.25 174.673 1071.54 203.582 1063.62 215.157C1058.93 222.015 1046.57 246.229 1036.21 264.507C1029.94 276.879 1027.23 285.199 1025.25 286.44C1020.38 289.487 1012.46 286.44 1011.24 282.785C1010.02 279.129 1013.07 275.474 1017.94 274.864C1022.81 274.255 1033.77 284.003 1038.04 288.268C1042.3 292.533 1047.78 316.294 1067.27 326.042C1086.76 335.79 1105.04 325.433 1121.48 317.512C1137.92 309.592 1167.16 275.474 1172.03 269.99C1174.57 267.13 1204.31 219.422 1217.1 203.582C1229.89 187.741 1251.21 158.497 1258.52 135.345C1265.83 112.193 1264.61 88.4321 1246.95 76.247C1229.28 64.0619 1203.7 77.7321 1193.35 83.5581C1183 89.3841 1170.21 101.226 1167.16 112.193C1164.11 123.16 1160.46 154.841 1163.51 155.45C1166.55 156.06 1168.99 146.312 1174.47 146.921C1177.1 147.214 1187.26 150.576 1196.4 157.887C1205.53 165.198 1218.95 176.259 1218.32 179.211C1217.1 184.898 1204.92 184.695 1199.44 187.741C1193.96 190.787 1193.35 193.833 1189.7 193.833C1186.04 193.833 1172.03 187.741 1165.94 187.741C1159.85 187.741 1152.54 185.913 1150.72 191.396C1148.89 196.88 1167.16 202.972 1172.03 204.8C1176.91 206.628 1200.05 208.456 1202.49 202.363C1204.92 196.27 1186.04 200.535 1180.56 196.88C1178.34 195.401 1172.54 188.659 1167.16 180.43C1159.24 168.317 1152.54 153.623 1148.28 162.152C1145.79 167.126 1158.45 184.85 1170.81 198.098C1178.73 208.456 1188.93 213.582 1189.7 216.376C1191.52 223.078 1170.81 219.509 1167.16 218.813C1165.73 218.54 1162.34 216.797 1158.63 216.376C1152.87 215.72 1146.45 217.594 1145.23 215.157C1144.02 212.72 1151.32 212.72 1151.93 208.456C1152.27 206.13 1148.33 198.368 1145.23 191.396C1142.65 185.584 1141.58 177.384 1136.71 179.211C1131.83 181.039 1135.49 195.052 1140.36 202.363C1145.23 209.674 1172.03 210.893 1173.86 213.33C1175.69 215.767 1170.21 220.641 1170.21 220.641C1170.21 220.641 1165.94 225.515 1161.68 225.515C1157.42 225.515 1138.53 224.905 1131.83 218.813C1125.13 212.72 1122.09 195.052 1126.35 193.833C1130.62 192.615 1133.2 203.906 1139.75 213.33C1148.33 225.656 1156.2 235.872 1158.63 237.7C1161.07 239.528 1169.6 241.965 1167.16 246.229C1164.72 250.494 1145.23 247.448 1133.66 237.7C1122.09 227.952 1113.56 216.376 1117.22 212.72C1120.87 209.065 1134.27 228.561 1143.41 234.654C1148.03 237.736 1169.99 243.183 1173.25 234.044C1176.51 224.905 1147.67 229.17 1140.36 227.952C1133.05 226.733 1113.87 218.813 1108.69 208.456C1103.51 198.098 1102.6 189.569 1108.08 183.476C1113.56 177.384 1120.87 169.463 1130.62 155.45C1140.36 141.437 1159.06 114.021 1161.68 114.021C1166.69 114.021 1144.62 149.967 1136.71 162.152C1128.79 174.337 1100.77 193.833 1087.37 206.628C1073.97 219.422 1055.7 246.229 1050.83 266.944C1045.96 287.659 1052.66 302.89 1056.31 309.592C1057.98 312.652 1076.34 326.639 1097.12 319.949C1122.09 310.201 1145.23 287.659 1149.5 284.003C1153.76 280.348 1162.9 266.944 1175.08 262.679C1187.26 258.415 1440 260.5 1440 260.5" stroke="#F6F6F6" stroke-width="2"/>
</svg>
